<svg xmlns="http://www.w3.org/2000/svg" viewBox="0 0 64 64" width="64" height="64">
  <rect width="64" height="64" rx="14" fill="#1a2138"/>
  <path d="M32 8c-3 3-3 7 0 10 3-3 3-7 0-10z" fill="#d4af37"/>
  <rect x="30" y="17" width="4" height="4" fill="#d4af37"/>
  <path d="M18 40c0-8 6-13 14-13s14 5 14 13v6H18z" fill="#d4af37"/>
  <rect x="9" y="28" width="5" height="18" fill="#d4af37"/>
  <polygon points="11.5,18 14.5,28 8.5,28" fill="#d4af37"/>
  <rect x="50" y="28" width="5" height="18" fill="#d4af37"/>
  <polygon points="52.5,18 55.5,28 49.5,28" fill="#d4af37"/>
  <rect x="12" y="46" width="40" height="4" fill="#d4af37"/>
</svg>
